<?xml version="1.0" encoding="utf-8"?>
<!DOCTYPE svg PUBLIC "-//W3C//DTD SVG 20010904//EN" "http://www.w3.org/TR/2001/REC-SVG-20010904/DTD/svg10.dtd">
<svg version="1.0" xmlns="http://www.w3.org/2000/svg" width="64px" height="64px" viewBox="0 0 512 512" preserveAspectRatio="xMidYMid meet">
 <g fill="#FFFFFF">
  <path d="M240.5 510.9 c-33.5 -1.9 -65.9 -10.5 -97 -25.9 -78.5 -38.7 -131 -113.3 -141.5 -201 -1.6 -13.8 -1.4 -45.3 0.5 -59.5 4.1 -31 11.7 -55.7 25.4 -83 32.3 -63.8 87.9 -110.2 157.1 -130.9 35.1 -10.5 76.8 -12.7 116.5 -6 40.1 6.7 81.1 25.5 115.2 52.8 4.5 3.7 8.5 6.6 9 6.6 0.4 0 7.5 -6.7 15.8 -14.9 11.4 -11.4 15.9 -15.2 18.7 -15.9 10.9 -2.9 21.6 7.7 18.6 18.5 -1.2 4.4 -4.2 7.5 -116.6 119.8 l-75.1 75 0.1 8.2 c0 6.6 -0.4 9.1 -2.4 13.5 -3.5 7.6 -8 12.3 -15.3 15.9 -20.7 10.1 -44.7 -4.9 -44.7 -28.1 0 -12.4 6.4 -22.5 17.7 -28.1 5.7 -2.8 7.3 -3.1 14.8 -3.1 l8.3 0.1 11.8 -11.8 c13.1 -13.1 12.9 -12.3 3.5 -16.4 -7.6 -3.4 -14.6 -4.7 -25.2 -4.7 -30 0 -54.8 19.5 -62.3 49 -2.4 9.6 -1.6 27.2 1.8 36.2 7.1 19.1 20.5 32.5 39.6 39.6 9 3.3 26.6 4.2 36.2 1.8 9.9 -2.5 19.7 -7.6 27.9 -14.4 4.4 -3.7 8.6 -6.4 10.6 -6.8 12.2 -2.2 22.6 10.9 17 21.5 -2.1 4.2 -13.3 14 -21.1 18.7 -13.4 7.9 -26.3 12.1 -40.4 13.2 -30.2 2.5 -57 -7.5 -77.6 -28.9 -8.1 -8.5 -11.7 -13.6 -16.6 -23.4 -15.4 -30.6 -12.9 -67.9 6.5 -96.5 7.9 -11.6 22.8 -24.5 35.7 -31 14.6 -7.3 26.7 -10.2 43.4 -10.1 18 0 35.3 4.8 48.9 13.4 3.2 2.1 6.1 3.7 6.5 3.7 1.1 0 34.2 -33.4 34.2 -34.5 0 -1.5 -17.2 -12.7 -26.5 -17.3 -19.2 -9.5 -34.9 -13.2 -58.7 -13.9 -21.2 -0.7 -32.2 0.8 -50.3 6.8 -22 7.3 -40 18.5 -56.5 34.9 -16.5 16.5 -27.6 34.6 -34.9 56.5 -5.3 16.1 -7.1 27.6 -7.1 45.5 0 17.9 1.8 29.4 7.1 45.5 7.3 21.9 18.4 40 34.9 56.5 16.5 16.4 34.5 27.6 56.5 34.9 18.1 6 29.1 7.5 50.3 6.8 18.7 -0.6 27.8 -2.1 42.4 -7.1 12.1 -4.2 18.5 -3 24.2 4.6 4.8 6.6 1.3 17.8 -6.7 21.7 -12 5.7 -33.8 10.7 -51.6 11.9 -40.4 2.8 -77.4 -7.1 -111.7 -29.9 -15.1 -10 -36.3 -31.2 -46.3 -46.3 -13.4 -20.2 -22.4 -41.5 -27.1 -64.2 -4.1 -19.6 -4.1 -49.2 0 -68.8 15.3 -73.8 74.2 -128.9 149.5 -139.7 10.8 -1.5 36.6 -1.3 48.5 0.5 28 4.3 56 15.8 77.8 32.3 4.6 3.4 8.7 6.3 9 6.3 0.4 0 8.3 -7.6 17.6 -16.9 14.9 -14.9 16.8 -17.2 15.6 -18.6 -2.2 -2.6 -19 -15 -28.1 -20.6 -19.4 -12.1 -46.6 -23.2 -68.4 -27.9 -33.6 -7.2 -72.2 -6.7 -104.2 1.4 -80.3 20.4 -142.5 82.6 -162.9 162.9 -8.6 33.9 -8.6 75.5 0 109.4 16.4 64.6 60.2 118.2 120.4 147.4 30.6 14.9 62.1 21.9 98 21.9 31.5 -0.1 52.9 -4.3 86.7 -17 7.2 -2.8 11.9 -2.3 16.6 1.7 6 5.1 7.5 12.7 3.7 19.5 -1.8 3.1 -3.7 4.6 -9.3 7.3 -19.8 9.4 -53.8 17.6 -78.5 19 -5.2 0.3 -12.2 0.7 -15.5 0.9 -3.3 0.2 -12.3 -0.1 -20 -0.5z"/>
  <path d="M396.9 456.7 c-6.2 -4.1 -8.7 -13.2 -5.5 -19.6 0.8 -1.5 4.1 -5 7.3 -7.7 3.2 -2.7 8.8 -7.6 12.4 -11 9.7 -9.1 17 -10.5 23.9 -4.7 6 5 7.6 12.1 4.4 19 -1.8 3.6 -21.2 21.6 -26.7 24.6 -4.5 2.5 -11.6 2.2 -15.8 -0.6z"/>
  <path d="M359.7 383.8 c-4 -2.4 -7.7 -8.6 -7.7 -13.1 0 -8.7 8.3 -16.7 17.3 -16.7 8.3 0 15.1 6.7 15.1 15 0 12.6 -14 21 -24.7 14.8z"/>
 </g>
</svg>